<svg width="24" height="24" viewBox="0 0 24 24" fill="none" xmlns="http://www.w3.org/2000/svg">
<path fill-rule="evenodd" clip-rule="evenodd" d="M23.2199 14.745C22.6349 11.157 20.5679 8.34297 17.7404 6.73797L19.3994 3.08997C19.4604 2.95543 19.4944 2.81018 19.4993 2.66251C19.5043 2.51485 19.4801 2.36765 19.4281 2.22934C19.3762 2.09103 19.2975 1.9643 19.1965 1.8564C19.0956 1.7485 18.9744 1.66153 18.8399 1.60047C18.7053 1.5394 18.5601 1.50544 18.4124 1.5005C18.2648 1.49557 18.1176 1.51978 17.9792 1.57173C17.6999 1.67666 17.4737 1.88825 17.3504 2.15997L15.6824 5.82897C14.4931 5.44289 13.2502 5.24748 11.9999 5.24997C10.7495 5.24748 9.50664 5.44289 8.31737 5.82897L6.64937 2.15997C6.58831 2.02543 6.50134 1.90423 6.39344 1.8033C6.28554 1.70237 6.15881 1.62369 6.0205 1.57173C5.88219 1.51978 5.73499 1.49557 5.58733 1.5005C5.43966 1.50544 5.29441 1.5394 5.15987 1.60047C5.02533 1.66153 4.90414 1.7485 4.80321 1.8564C4.70228 1.9643 4.62359 2.09103 4.57164 2.22934C4.51968 2.36765 4.49548 2.51485 4.50041 2.66251C4.50534 2.81018 4.53931 2.95543 4.60037 3.08997L6.25937 6.73797C3.43187 8.34297 1.36337 11.157 0.779873 14.745C0.584873 15.942 0.512873 17.2275 0.940373 18.3945C1.42787 19.7295 2.42387 20.556 3.59237 21.0195C4.64387 21.4395 5.90237 21.594 7.19837 21.669C8.52887 21.747 10.1429 21.75 11.9999 21.75C13.8569 21.75 15.4709 21.747 16.7999 21.669C18.0959 21.594 19.3559 21.438 20.4074 21.021C21.5774 20.556 22.5719 19.731 23.0594 18.396C23.4869 17.226 23.4149 15.942 23.2199 14.745ZM2.99987 15.1065C2.29487 19.4415 4.49987 19.5 11.9999 19.5C19.4999 19.5 21.7049 19.443 20.9999 15.1065C20.2499 10.5 16.4999 7.49997 11.9999 7.49997C7.49987 7.49997 3.74987 10.5 2.99987 15.1065ZM15.7499 16.875C15.4515 16.875 15.1654 16.7564 14.9544 16.5455C14.7434 16.3345 14.6249 16.0483 14.6249 15.75V13.5C14.6249 13.2016 14.7434 12.9155 14.9544 12.7045C15.1654 12.4935 15.4515 12.375 15.7499 12.375C16.0482 12.375 16.3344 12.4935 16.5454 12.7045C16.7563 12.9155 16.8749 13.2016 16.8749 13.5V15.75C16.8749 16.0483 16.7563 16.3345 16.5454 16.5455C16.3344 16.7564 16.0482 16.875 15.7499 16.875ZM7.12487 15.75C7.12487 16.0483 7.2434 16.3345 7.45438 16.5455C7.66536 16.7564 7.9515 16.875 8.24987 16.875C8.54824 16.875 8.83439 16.7564 9.04537 16.5455C9.25635 16.3345 9.37487 16.0483 9.37487 15.75V13.5C9.37487 13.2016 9.25635 12.9155 9.04537 12.7045C8.83439 12.4935 8.54824 12.375 8.24987 12.375C7.9515 12.375 7.66536 12.4935 7.45438 12.7045C7.2434 12.9155 7.12487 13.2016 7.12487 13.5V15.75Z" fill="#666666"/>
</svg>
