<svg width="24" height="24" viewBox="0 0 24 24" fill="none" xmlns="http://www.w3.org/2000/svg">
<path d="M1.4408 17.2779H3.20608V9.76375H1.4408V17.2779ZM2.3198 8.77846C2.87265 8.77846 3.30551 8.35289 3.30551 7.82146C3.30551 7.28232 2.87265 6.85718 2.3198 6.85718C1.77423 6.85718 1.3418 7.28232 1.3418 7.82146C1.3418 8.35289 1.77423 8.77846 2.3198 8.77846ZM9.08265 6.87861C6.09851 6.87861 4.22694 8.91303 4.22694 12.1667C4.22694 15.4205 6.09851 17.448 9.08265 17.448C12.0604 17.448 13.9319 15.4209 13.9319 12.1667C13.9319 8.91303 12.0604 6.87818 9.08308 6.87818M9.08308 8.43732C10.9054 8.43732 12.0677 9.88375 12.0677 12.1659C12.0677 14.4416 10.9054 15.888 9.08351 15.888C7.25437 15.888 6.09894 14.442 6.09894 12.1663C6.09894 9.88375 7.25437 8.43775 9.08351 8.43775M14.6768 14.4C14.7548 16.2857 16.3002 17.4485 18.6539 17.4485C21.1277 17.4485 22.6872 16.2292 22.6872 14.2869C22.6872 12.7625 21.8087 11.9049 19.7314 11.43L18.5545 11.1605C17.2997 10.863 16.7824 10.4662 16.7824 9.78518C16.7824 8.93489 17.5624 8.36746 18.7174 8.36746C19.8874 8.36746 20.6884 8.94175 20.7732 9.89875H22.5175C22.4747 8.09832 20.9858 6.87904 18.7319 6.87904C16.5059 6.87904 14.9249 8.10518 14.9249 9.92018C14.9249 11.3803 15.8181 12.2876 17.7038 12.72L19.0294 13.032C20.3194 13.3367 20.8439 13.7623 20.8439 14.4995C20.8439 15.3502 19.9864 15.9596 18.7529 15.9596C17.5054 15.9596 16.5629 15.3429 16.4489 14.4005L14.6768 14.4Z" fill="#666666"/>
</svg>
